<svg width="80" height="80" viewBox="0 0 80 80" fill="none" xmlns="http://www.w3.org/2000/svg">
<g clip-path="url(#clip0_403_621)">
<path d="M40.0001 12.8433C25.0034 12.8433 12.8434 25.0033 12.8434 39.9999C12.8434 54.9966 25.0034 67.1566 40.0001 67.1566C54.9967 67.1566 67.1567 54.9966 67.1567 39.9999C67.1567 25.0033 54.9967 12.8433 40.0001 12.8433Z" fill="white"/>
<path d="M21.1666 59.4199C21.7633 58.9699 22.2933 58.4399 22.8633 57.9566C22.9666 57.8733 23.0633 57.7833 23.1833 57.6799C23.24 57.8566 23.2866 57.9999 23.33 58.1466C23.6133 59.0766 24.21 59.7233 25.1266 60.0766C25.5033 60.2233 25.88 60.3699 26.2666 60.4966C27.8966 61.0233 29.12 62.0366 29.95 63.5199C30.03 63.6633 30.0933 63.7266 30.28 63.6733C31.99 63.1966 33.64 63.3999 35.2366 64.1466C35.7533 64.3866 36.27 64.6266 36.8166 64.8066C37.6366 65.0833 38.3966 64.9666 39.1 64.4699C39.2433 64.3699 39.3833 64.2633 39.58 64.1199C39.5933 65.1133 39.61 66.0633 39.6233 67.0099C39.62 67.1666 39.5866 67.2566 39.3866 67.2433C38.41 67.1899 37.4366 67.1499 36.4633 67.0299C34.3866 66.7766 32.3766 66.2799 30.4266 65.5333C27.39 64.3766 24.67 62.6966 22.2066 60.6033C21.8666 60.3166 21.5366 60.0133 21.1966 59.7266C21.0766 59.6266 21.0566 59.5333 21.1666 59.4199Z" fill="black"/>
<path d="M20.4533 21.2266C21.07 21.8966 21.6867 22.5666 22.33 23.2666C22.1733 23.32 22.0433 23.3666 21.9133 23.4033C20.92 23.69 20.2533 24.32 19.8933 25.2733C19.7433 25.6666 19.5967 26.0633 19.4633 26.4633C18.9467 28.0166 17.9567 29.18 16.5333 29.9866C16.3367 30.0966 16.2867 30.1933 16.35 30.4166C16.82 32.0666 16.6267 33.6633 15.9167 35.2133C15.7133 35.6533 15.52 36.0966 15.3367 36.5433C14.9267 37.54 15.05 38.4633 15.7533 39.2933C15.8133 39.3633 15.87 39.4366 15.9667 39.56C14.91 39.58 13.8967 39.6 12.8867 39.6166C12.7667 39.55 12.81 39.4366 12.81 39.34C12.86 35.0333 13.89 30.98 15.9933 27.2C16.5233 26.25 17.1133 25.34 17.7333 24.45C18.15 23.85 18.5867 23.27 19.05 22.7066C19.4233 22.26 19.8067 21.82 20.2067 21.3966C20.2767 21.3233 20.33 21.2233 20.4533 21.2266Z" fill="black"/>
<path d="M12.8933 40.55C13.8167 40.6034 14.74 40.6567 15.6967 40.71C15.6167 40.8634 15.55 41 15.48 41.1334C15.02 41.9867 14.9767 42.8634 15.37 43.7534C15.5467 44.1467 15.7267 44.5434 15.9233 44.93C16.68 46.4167 16.81 47.9634 16.36 49.5567C16.3067 49.7367 16.3233 49.83 16.5 49.9267C18.0233 50.7634 19.0367 52.0301 19.64 53.6367C19.78 54.0134 19.94 54.3834 20.0767 54.76C20.5267 55.99 21.3867 56.6634 22.7867 56.6834C22.0633 57.4334 21.38 58.1434 20.6933 58.85C20.5267 58.9867 20.4533 58.83 20.37 58.7434C18.98 57.32 17.7533 55.7734 16.7167 54.0801C14.92 51.1401 13.7967 47.9634 13.2333 44.5767C13.0233 43.3134 12.92 42.0434 12.8233 40.77C12.8167 40.6867 12.8033 40.6 12.8933 40.55Z" fill="black"/>
<path d="M67.2767 39.5766C66.3433 39.5266 65.41 39.4733 64.4433 39.4199C64.5367 39.2466 64.6167 39.1033 64.69 38.9599C65.1267 38.1199 65.17 37.2633 64.7867 36.3933C64.6033 35.9766 64.4133 35.5666 64.21 35.1599C63.4767 33.6833 63.3533 32.1566 63.8033 30.5799C63.85 30.4133 63.8567 30.3066 63.6733 30.2066C62.1267 29.3566 61.11 28.0633 60.51 26.4333C60.3567 26.0166 60.1833 25.6066 60.02 25.1966C59.62 24.1699 58.8833 23.5666 57.7633 23.4533C57.66 23.4433 57.56 23.4266 57.4567 23.4133C57.4433 23.3066 57.5333 23.2699 57.5867 23.2166C58.2 22.5966 58.8233 21.9833 59.43 21.3566C59.57 21.2166 59.64 21.2066 59.7833 21.3566C60.96 22.5633 62.0167 23.8666 62.9533 25.2633C63.0067 25.3399 63.02 25.4566 63.1433 25.4766L63.1367 25.4699C63.1833 25.6899 63.3367 25.8533 63.4567 26.0333L63.4533 26.0266C63.5167 26.1333 63.58 26.2399 63.6467 26.3433L63.64 26.3366C63.65 26.3733 63.65 26.4166 63.71 26.4066L63.7033 26.3966C63.6933 26.4566 63.7033 26.5099 63.7667 26.5366C64.2 27.2166 64.5333 27.9499 64.8733 28.6699C65.3467 29.6799 65.7133 30.7333 66.0467 31.7966C66.0767 31.8899 66.1867 31.9566 66.1433 32.0733C66.0767 32.1766 66.17 32.2299 66.2167 32.2966L66.21 32.2899C66.2367 32.4166 66.2467 32.5499 66.2933 32.6733C66.43 33.0499 66.4333 33.4633 66.6333 33.8199C66.63 34.2133 66.7233 34.6033 66.8267 34.9733C66.91 35.2633 66.8933 35.5466 66.9367 35.8299C67.1133 37.0733 67.2833 38.3166 67.2767 39.5766Z" fill="black"/>
<path d="M59.4933 58.6735C58.92 58.0335 58.35 57.3968 57.7533 56.7334C57.8733 56.6934 57.9666 56.6601 58.06 56.6334C59.0966 56.3468 59.8133 55.7168 60.1766 54.7068C60.3166 54.3068 60.47 53.9134 60.6033 53.5134C61.1133 51.9834 62.0866 50.8268 63.4866 50.0301C63.7266 49.8934 63.7566 49.7701 63.6866 49.5201C63.22 47.8701 63.4333 46.2768 64.1433 44.7301C64.3733 44.2335 64.5866 43.7301 64.7766 43.2168C65.0866 42.3668 64.9433 41.5735 64.3933 40.8501C64.3 40.7301 64.2033 40.6068 64.0666 40.4335C65.1166 40.4101 66.12 40.3901 67.12 40.3701C67.2233 40.4335 67.1933 40.5335 67.1966 40.6235C67.22 42.1435 67.07 43.6501 66.7966 45.1434C66.33 47.7068 65.4733 50.1435 64.2533 52.4501C63.1533 54.5268 61.8066 56.4301 60.25 58.1968C60.1133 58.3501 59.9666 58.4968 59.8433 58.6635C59.72 58.8301 59.6133 58.7935 59.4933 58.6735Z" fill="black"/>
<path d="M40.49 15.96C40.49 14.9434 40.4934 13.9834 40.4867 13.0267C40.4867 12.8334 40.5934 12.8434 40.73 12.8467C44.0134 12.9267 47.18 13.5534 50.2167 14.8067C53.4567 16.15 56.3034 18.08 58.8667 20.44C58.95 20.5167 59.0567 20.5667 58.9067 20.6967C58.2434 21.2634 57.5867 21.84 56.93 22.41C56.9167 22.4234 56.89 22.4167 56.83 22.4267C56.5934 20.9 55.53 20.18 54.1467 19.7534C53.19 19.46 52.2834 19.0467 51.5267 18.36C50.9567 17.8467 50.5 17.25 50.1267 16.5867C50.05 16.45 49.98 16.39 49.8134 16.4367C48.0767 16.92 46.4134 16.6934 44.8 15.93C44.2567 15.67 43.7134 15.4134 43.1334 15.24C42.3934 15.02 41.71 15.1367 41.0734 15.55C40.8934 15.6667 40.72 15.8 40.49 15.96Z" fill="black"/>
<path d="M23.1133 22.8C22.3933 22.1167 21.6767 21.44 20.96 20.7667C20.8067 20.6234 20.97 20.57 21.0333 20.5067C21.7467 19.79 22.5 19.12 23.29 18.4934C26.8733 15.6534 30.9567 13.92 35.47 13.1567C36.6533 12.9534 37.8433 12.82 39.04 12.74C39.2467 12.7267 39.3033 12.7767 39.2933 12.9834C39.2533 13.77 39.23 14.5534 39.2067 15.34C39.2033 15.5334 39.1633 15.5767 38.9833 15.47C37.93 14.8534 36.8733 14.8767 35.7967 15.4234C35.02 15.82 34.2467 16.2334 33.3867 16.4334C32.3267 16.6834 31.2733 16.61 30.23 16.35C30.07 16.31 29.9967 16.3234 29.9167 16.4734C29.0767 18.03 27.7867 19.0667 26.14 19.6934C25.6433 19.8834 25.1533 20.0867 24.6733 20.31C23.76 20.7267 23.2767 21.45 23.1933 22.44C23.1833 22.5334 23.17 22.6234 23.1567 22.7167C23.1533 22.7367 23.1367 22.7534 23.1133 22.8Z" fill="black"/>
<path d="M58.97 59.22C58.2533 58.5567 57.5333 57.89 56.7933 57.2034C56.7866 57.29 56.78 57.34 56.7766 57.39C56.7066 58.5867 56.11 59.4 54.9866 59.84C54.5633 60.0067 54.14 60.1867 53.7133 60.35C52.1666 60.9467 50.9266 61.91 50.11 63.36C49.9566 63.63 49.83 63.6967 49.5166 63.6167C48.0666 63.2434 46.6466 63.35 45.2833 64C44.8166 64.2234 44.35 64.45 43.88 64.6667C42.9366 65.1034 42.0066 65.0767 41.0866 64.5867C40.9833 64.5334 40.89 64.4367 40.73 64.4434C40.6933 65.27 40.6533 66.0934 40.6133 66.9167C40.57 67.2 40.7033 67.26 40.9666 67.2434C42.06 67.1667 43.1433 67.0434 44.2233 66.8734C47.5533 66.35 50.69 65.29 53.6033 63.6C55.54 62.4767 57.2966 61.1234 58.88 59.55C58.9733 59.46 59.11 59.3767 58.97 59.22Z" fill="black"/>
<path d="M40 0C17.9433 0 0 17.9433 0 40C0 62.0567 17.9433 80 40 80C62.0567 80 80 62.0567 80 40C80 17.9433 62.0567 0 40 0ZM40 78.52C18.7267 78.52 1.48 61.2733 1.48 40C1.48 18.7267 18.7267 1.48 40 1.48C61.2733 1.48 78.52 18.7267 78.52 40C78.52 61.2733 61.2733 78.52 40 78.52Z" fill="black"/>
<path d="M40 1.47998C18.7266 1.47998 1.47998 18.7266 1.47998 40C1.47998 61.2733 18.7266 78.52 40 78.52C61.2733 78.52 78.52 61.2733 78.52 40C78.52 18.7266 61.2733 1.47998 40 1.47998ZM40 67.1566C25.0033 67.1566 12.8433 54.9966 12.8433 40C12.8433 25.0033 25.0033 12.8433 40 12.8433C54.9966 12.8433 67.1566 25.0033 67.1566 40C67.1566 54.9966 54.9966 67.1566 40 67.1566Z" fill="#019966"/>
<path d="M70.33 38.5566C70.8866 38.5899 71.3766 38.7732 71.8833 38.8899C71.98 38.9099 72.1033 38.9966 72.16 38.8766C72.23 38.7232 72.0566 38.6932 71.97 38.6432C71.5766 38.4299 71.1933 38.1966 70.8233 37.9432C70.5966 37.7866 70.41 37.5966 70.3266 37.3199C70.27 37.1366 70.32 36.9832 70.4466 36.8666C70.5666 36.7566 70.7133 36.7199 70.8833 36.7832C71.3 36.9432 71.51 37.3099 71.7433 37.6532C71.91 37.9032 72.05 38.1732 72.2066 38.4299C72.2566 38.5132 72.2866 38.6599 72.4233 38.5999C72.55 38.5466 72.45 38.4366 72.4333 38.3532C72.3233 37.7966 72.1 37.2566 72.1133 36.6766C72.1166 36.4699 72.1566 36.2832 72.3166 36.1399C72.56 35.9199 72.83 35.9599 72.9866 36.2499C73.1233 36.4999 73.1433 36.7666 73.08 37.0399C72.9833 37.4732 72.8766 37.9099 72.7733 38.3432C72.7566 38.4199 72.69 38.5132 72.8066 38.5566C72.91 38.5899 72.95 38.4932 72.9866 38.4199C73.14 38.1232 73.2933 37.8299 73.4433 37.5299C73.58 37.2566 73.77 37.0232 74 36.8232C74.1966 36.6499 74.55 36.6099 74.69 36.7599C74.8733 36.9566 74.8366 37.1832 74.7266 37.3999C74.56 37.7199 74.27 37.9099 73.99 38.1099C73.7266 38.2932 73.45 38.4599 73.1833 38.6432C73.12 38.6866 73.0266 38.7399 73.07 38.8399C73.1166 38.9532 73.21 38.9299 73.3066 38.9032C73.68 38.7999 74.0533 38.7132 74.4233 38.6066C74.66 38.5399 74.9 38.5466 75.1366 38.5566C75.4233 38.5732 75.6766 38.7932 75.6866 39.0199C75.7 39.2366 75.49 39.4432 75.1933 39.4966C74.6433 39.5999 74.13 39.3966 73.6033 39.2899C73.49 39.2699 73.3833 39.2299 73.2733 39.1999C73.1933 39.1766 73.1333 39.1866 73.0933 39.2699C73.0466 39.3699 73.12 39.3966 73.1833 39.4366C73.5066 39.6432 73.83 39.8499 74.16 40.0532C74.3566 40.1766 74.5166 40.3432 74.67 40.5099C74.9033 40.7599 74.92 41.0799 74.74 41.2766C74.59 41.4366 74.24 41.4166 74 41.2032C73.7233 40.9599 73.5333 40.6466 73.35 40.3299C73.2333 40.1199 73.1166 39.9099 72.9966 39.7032C72.96 39.6366 72.9333 39.5299 72.82 39.5832C72.7133 39.6299 72.7666 39.7199 72.7833 39.7999C72.89 40.3366 73.0733 40.8632 73.05 41.4266C73.0433 41.5866 73.0166 41.7366 72.91 41.8599C72.8 41.9866 72.6766 42.1432 72.5 42.1066C72.31 42.0699 72.19 41.9066 72.1166 41.7232C71.9933 41.4132 72.08 41.1066 72.1466 40.8032C72.2233 40.4599 72.3333 40.1232 72.4233 39.7799C72.4433 39.7032 72.5333 39.5966 72.3866 39.5432C72.2666 39.4999 72.2533 39.6232 72.2133 39.6799C71.9133 40.1299 71.67 40.6166 71.27 40.9966C70.95 41.3032 70.5933 41.3832 70.39 41.1766C70.1966 40.9832 70.2833 40.5932 70.5966 40.2966C70.9766 39.9432 71.4566 39.7532 71.8933 39.4899C71.9466 39.4566 72.0033 39.4299 72.0566 39.3999C72.12 39.3632 72.2033 39.3299 72.1566 39.2399C72.1166 39.1632 72.0466 39.2199 71.99 39.2332C71.5633 39.3299 71.14 39.4266 70.7133 39.5299C70.5266 39.5732 70.34 39.5666 70.1533 39.5499C69.8566 39.5199 69.5866 39.2766 69.6 39.0466C69.6133 38.7499 69.8566 38.6632 70.0833 38.5832C70.17 38.5532 70.27 38.5632 70.33 38.5566Z" fill="black"/>
<path d="M7.52672 36.7533C7.52672 37.25 7.34005 37.71 7.23672 38.1866C7.21672 38.2833 7.14339 38.42 7.25672 38.4666C7.38672 38.5166 7.40339 38.35 7.45339 38.2733C7.74672 37.8066 7.90672 37.26 8.31005 36.8633C8.59672 36.5766 8.94672 36.4933 9.14005 36.6733C9.35672 36.8766 9.30339 37.2166 9.01005 37.5366C8.62339 37.96 8.12005 38.22 7.66339 38.5466C7.58672 38.6 7.44672 38.6166 7.50672 38.77C7.57339 38.93 7.69005 38.8266 7.77339 38.8066C8.25672 38.6833 8.73339 38.54 9.22672 38.4566C9.42339 38.4233 9.61005 38.45 9.78005 38.5166C9.97672 38.5966 10.1534 38.7533 10.1367 38.9833C10.1201 39.1933 9.95672 39.33 9.75005 39.3866C9.36339 39.4933 8.98339 39.4266 8.60672 39.34C8.32339 39.2766 8.04339 39.1966 7.76005 39.13C7.68672 39.1133 7.58672 39.08 7.54005 39.1833C7.49005 39.2933 7.60339 39.32 7.66339 39.3633C8.10672 39.6766 8.60339 39.9066 8.99672 40.2933C9.15672 40.45 9.28672 40.6166 9.28672 40.8566C9.28672 41.2266 9.00672 41.41 8.67339 41.2533C8.36672 41.11 8.16339 40.86 8.00005 40.5766C7.82005 40.27 7.64672 39.9633 7.47339 39.6533C7.42672 39.5766 7.39339 39.4566 7.27339 39.51C7.15672 39.5566 7.20672 39.6733 7.22672 39.7566C7.33005 40.16 7.42005 40.5633 7.48672 40.9766C7.52005 41.18 7.51339 41.37 7.46339 41.5633C7.38672 41.8466 7.16005 42.06 6.94339 42.0033C6.68672 41.94 6.55339 41.74 6.52339 41.48C6.48339 41.1 6.57339 40.7366 6.68005 40.3766C6.75005 40.1366 6.82339 39.8966 6.89005 39.6566C6.91005 39.5833 6.90672 39.5 6.82339 39.4633C6.72339 39.42 6.70672 39.5233 6.67339 39.5766C6.33672 40.09 6.06672 40.6466 5.57339 41.0433C5.22339 41.3233 4.79339 41.23 4.73339 40.8566C4.70005 40.6666 4.79339 40.5166 4.91005 40.3766C5.29005 39.9233 5.83339 39.7066 6.32339 39.4166C6.43005 39.3533 6.66005 39.3133 6.60672 39.1866C6.53339 39.0133 6.34339 39.17 6.22005 39.2C5.80672 39.3033 5.39339 39.4066 4.97339 39.4733C4.71339 39.5133 4.47005 39.4766 4.25672 39.32C4.13005 39.23 4.00339 39.1 4.03339 38.9366C4.06339 38.7566 4.18339 38.6166 4.37005 38.5566C4.75339 38.4266 5.13005 38.5 5.50672 38.59C5.78005 38.6566 6.04672 38.74 6.32005 38.8066C6.42005 38.8333 6.55672 38.95 6.62339 38.8066C6.69672 38.6533 6.52005 38.63 6.43339 38.5733C6.06005 38.3433 5.68339 38.1233 5.31339 37.89C5.12672 37.7733 4.96339 37.6233 4.85672 37.4233C4.73672 37.2 4.68005 36.9566 4.90005 36.77C5.12005 36.58 5.36339 36.6733 5.56005 36.8266C5.86672 37.0633 6.09339 37.38 6.28339 37.7166C6.40672 37.9366 6.53339 38.1533 6.66672 38.3633C6.71005 38.4333 6.73672 38.5766 6.85672 38.5166C6.95339 38.47 6.90672 38.3433 6.88672 38.26C6.81005 37.9233 6.73005 37.59 6.63672 37.26C6.56339 37.0033 6.56672 36.7433 6.58339 36.4833C6.60005 36.1866 6.84005 35.9166 7.07005 35.92C7.29339 35.9233 7.49672 36.1666 7.52339 36.4733C7.53339 36.5666 7.52672 36.66 7.52672 36.7533Z" fill="black"/>
<path d="M17.35 18.5401C17.0333 18.2634 16.66 18.1468 16.24 18.1834C16.0333 18.2068 15.8133 18.2834 15.5833 18.4134C15.6333 18.1868 15.64 17.9701 15.5966 17.7668C15.5333 17.4534 15.3766 17.1834 15.1333 16.9734C14.85 16.7268 14.5166 16.6001 14.1366 16.6001C14.1333 16.6001 14.13 16.6001 14.13 16.6001C13.7566 16.6001 13.3733 16.7368 12.9933 17.0068C12.7466 17.1834 12.46 17.4568 12.1433 17.8201L10.3933 19.8334L10.7133 20.1101L10.9433 19.8434C11.0633 19.7034 11.1866 19.6368 11.3166 19.6334C11.3666 19.6368 11.4966 19.6668 11.8333 19.9601L14.7 22.4534C15.01 22.7234 15.07 22.8468 15.0833 22.8868C15.12 23.0268 15.0733 23.1701 14.94 23.3201L14.71 23.5868L15.0266 23.8634L16.93 21.6734C17.38 21.1568 17.6566 20.7434 17.7833 20.4001C17.91 20.0534 17.93 19.7068 17.8433 19.3668C17.7566 19.0268 17.59 18.7468 17.35 18.5401ZM14.3433 17.8301C14.4933 17.9601 14.5966 18.1201 14.6566 18.3034C14.7166 18.4868 14.7166 18.6701 14.6533 18.8634C14.59 19.0668 14.4233 19.3234 14.16 19.6268C14.0533 19.7468 13.9533 19.8534 13.8566 19.9501C13.7966 20.0101 13.7366 20.0668 13.6766 20.1168L12.1333 18.7734C12.23 18.5968 12.3533 18.4201 12.51 18.2401C12.8366 17.8634 13.1733 17.6468 13.5066 17.6001C13.8366 17.5534 14.11 17.6301 14.3433 17.8301ZM15.8033 21.9634L14.1466 20.5268C14.18 20.4834 14.2166 20.4334 14.2566 20.3801C14.3366 20.2801 14.4333 20.1634 14.55 20.0334C14.8066 19.7368 15.0666 19.5234 15.3266 19.4001C15.5733 19.2801 15.8066 19.2401 16.02 19.2801C16.2366 19.3201 16.4233 19.4101 16.5766 19.5434C16.81 19.7468 16.9233 20.0034 16.92 20.3268C16.92 20.6534 16.7566 21.0068 16.4366 21.3768C16.25 21.5868 16.04 21.7868 15.8033 21.9634Z" fill="black"/>
<path d="M24.0333 14.97C23.8566 15.0867 23.6933 15.1367 23.5466 15.1267C23.44 15.1167 23.22 15.0534 22.7866 14.7967L18.1533 12.05L17.8933 12.2434L19.1466 17.4434C19.25 17.87 19.29 18.1767 19.2566 18.36C19.25 18.3934 19.2166 18.4934 19.01 18.71L18.9333 18.79L19.1733 19.1134L20.8666 17.8534L20.62 17.5234L20.5166 17.5867C20.2233 17.7734 20.1033 17.7867 20.07 17.79C19.98 17.7867 19.9433 17.7534 19.9266 17.73C19.8866 17.6767 19.8266 17.5567 19.76 17.28L19.5466 16.38L21.23 15.1267L21.9466 15.55C22.2433 15.7267 22.36 15.8367 22.4066 15.8967C22.44 15.94 22.4466 15.99 22.43 16.0534C22.42 16.0967 22.37 16.19 22.1633 16.3634L22.0666 16.44L22.3166 16.7734L24.3833 15.2367L24.1366 14.9034L24.0333 14.97ZM19.3966 15.7667L18.9133 13.7434L20.6966 14.7967L19.3966 15.7667Z" fill="black"/>
<path d="M28.54 11.2332L28.5467 11.3432C28.56 11.7199 28.5367 12.0132 28.4767 12.2132C28.4167 12.4066 28.3267 12.5666 28.2034 12.6866C28.08 12.8132 27.8167 12.9666 27.4234 13.1466L27.0334 13.3266C26.5667 13.5432 26.4634 13.5566 26.45 13.5566C26.4 13.5599 26.3634 13.5499 26.3367 13.5299C26.3 13.5032 26.2234 13.4166 26.1034 13.1566L24.56 9.79991C24.3767 9.39657 24.3567 9.26657 24.36 9.22657C24.36 9.15324 24.3967 9.07324 24.4667 8.98991C24.52 8.92657 24.65 8.81991 24.98 8.67324L25.1 8.61991L24.9234 8.23657L22.27 9.45324L22.4467 9.83657L22.7667 9.68991C22.9334 9.61324 23.0734 9.60324 23.1934 9.65657C23.2234 9.66657 23.3334 9.74324 23.5267 10.1666L25.1134 13.6132C25.2867 13.9932 25.2934 14.1232 25.2867 14.1599C25.2634 14.3066 25.1634 14.4199 24.98 14.5032L24.66 14.6499L24.8367 15.0332L29.17 13.0432L28.93 11.1466L28.54 11.2332Z" fill="black"/>
<path d="M32.5734 11.6066C32.4601 11.6366 32.3467 11.6399 32.2301 11.6099C32.1567 11.5933 32.1067 11.5666 32.0801 11.5299C32.0501 11.4899 31.9867 11.3733 31.8867 11.0199L30.8567 7.36326C30.7334 6.92992 30.7634 6.80326 30.7734 6.77659C30.8267 6.64659 30.9434 6.55993 31.1367 6.50659L31.4667 6.41326L31.3501 6.00659L28.6801 6.75993L28.7934 7.16326L29.1201 7.07326C29.2334 7.03992 29.3467 7.03993 29.4634 7.06659C29.5334 7.08326 29.5834 7.11326 29.6134 7.14993C29.6434 7.18993 29.7067 7.30659 29.8067 7.65992L30.8367 11.3166C30.9567 11.7499 30.9301 11.8766 30.9201 11.9033C30.8701 12.0299 30.7501 12.1199 30.5567 12.1733L30.2301 12.2633L30.3434 12.6699L33.0167 11.9166L32.9001 11.5133L32.5734 11.6066Z" fill="black"/>
<path d="M44.3433 5.56655C43.89 5.31988 43.21 5.15988 42.3233 5.08655L39.81 4.87988L39.7766 5.29988L40.1266 5.32988C40.31 5.34322 40.44 5.40322 40.5166 5.50988C40.5366 5.53322 40.5933 5.65322 40.5566 6.11655L40.2433 9.90322C40.21 10.3165 40.15 10.4332 40.1233 10.4665C40.0366 10.5799 39.8933 10.6265 39.6933 10.6099L39.3433 10.5799L39.3066 10.9999L42.05 11.2265C42.2133 11.2399 42.37 11.2466 42.5233 11.2466C43.4666 11.2466 44.22 10.9932 44.7633 10.4865C45.3233 9.95988 45.6433 9.26322 45.7133 8.41655C45.7666 7.78988 45.6666 7.21322 45.4166 6.70655C45.1666 6.19655 44.8066 5.81322 44.3433 5.56655ZM41.6833 5.72655C41.97 5.68322 42.2266 5.67322 42.4466 5.68988C43.1033 5.74322 43.61 6.00322 43.9933 6.48322C44.37 6.95655 44.53 7.58655 44.4666 8.35988C44.4033 9.12322 44.1433 9.71988 43.69 10.1299C43.2366 10.5399 42.7066 10.7132 42.07 10.6632C41.8566 10.6465 41.5966 10.5899 41.29 10.4999L41.6833 5.72655Z" fill="black"/>
<path d="M55.22 8.98003C55.3333 8.88003 55.4333 8.82336 55.5167 8.80669C55.6033 8.79336 55.7067 8.80669 55.83 8.85003L55.9533 8.89336L56.0933 8.49336L54.1933 7.82669L54.0533 8.22336L54.1767 8.26669C54.3267 8.32003 54.4433 8.38003 54.52 8.44336C54.5533 8.47003 54.5733 8.50336 54.5867 8.54669C54.6 8.59003 54.6 8.62669 54.5867 8.66336C54.5567 8.74336 54.4633 8.91336 54.18 9.26669L52.2833 11.6567V8.64336C52.2833 8.18003 52.32 7.98003 52.35 7.89336C52.3767 7.81669 52.4167 7.77003 52.4767 7.74336C52.5367 7.71669 52.6333 7.72336 52.75 7.76669L53.02 7.86003L53.16 7.46336L50.76 6.61669L50.62 7.01336L50.7433 7.05669C50.8733 7.10336 50.9233 7.13669 50.9433 7.15003C50.9933 7.18669 51.04 7.23669 51.0833 7.30003C51.1133 7.34336 51.1333 7.38669 51.1467 7.43336C51.18 7.55336 51.2 7.69003 51.2067 7.83003V8.72336L49.62 10.72L49.6233 7.59669C49.6267 7.11336 49.6533 6.96336 49.67 6.92003C49.69 6.86336 49.7267 6.82336 49.79 6.80003C49.86 6.77336 49.9533 6.78003 50.0667 6.82003L50.2867 6.89669L50.4267 6.50003L48.13 5.69336L47.99 6.09003L48.1133 6.13336C48.2533 6.18336 48.3567 6.24003 48.4167 6.30669C48.4733 6.37336 48.51 6.45003 48.5233 6.54669C48.53 6.59336 48.54 6.75003 48.54 7.22003L48.5633 12.4967L48.8867 12.61L51.2133 9.72003L51.2267 13.4367L51.5633 13.5534L54.74 9.55336C55.0367 9.16669 55.1633 9.02669 55.22 8.98003Z" fill="black"/>
<path d="M56.4566 15.4133C56.42 15.3467 56.4066 15.29 56.4133 15.2467C56.42 15.1967 56.4633 15.07 56.65 14.7567L58.6066 11.5C58.8366 11.1133 58.95 11.0467 58.9766 11.0367C59.1066 10.9867 59.25 11.0133 59.42 11.1133L59.7166 11.29L59.9333 10.93L57.5533 9.5L57.3366 9.86333L57.6266 10.0367C57.7266 10.0967 57.8066 10.1767 57.8666 10.28C57.9 10.3467 57.9133 10.4 57.9066 10.4467C57.9 10.4967 57.8566 10.6233 57.67 10.9367L55.7133 14.1933C55.4833 14.58 55.3733 14.65 55.3466 14.66C55.2166 14.71 55.07 14.6833 54.9 14.58L54.61 14.4033L54.3933 14.7667L56.77 16.1933L56.99 15.8333L56.6933 15.6567C56.5933 15.5967 56.5166 15.5167 56.4566 15.4133Z" fill="black"/>
<path d="M62.5966 16.78C63.0666 16.7467 63.47 16.5267 63.7967 16.13C64.04 15.8334 64.1633 15.5034 64.1667 15.1434C64.17 14.79 64.0833 14.46 63.9067 14.1634C63.7333 13.8767 63.4367 13.5567 63.02 13.2167L61.2567 11.77L60.99 12.0934L61.26 12.3167C61.4033 12.4334 61.4767 12.5567 61.48 12.6867C61.48 12.7167 61.46 12.8434 61.1633 13.2067L58.75 16.1434C58.4767 16.4734 58.3667 16.53 58.3433 16.5367C58.2 16.58 58.0567 16.54 57.8967 16.41L57.6267 16.19L57.36 16.5134L59.5033 18.2767L59.77 17.95L59.4967 17.7234C59.3533 17.6067 59.2833 17.4867 59.28 17.3567C59.28 17.3267 59.2966 17.1967 59.5966 16.8334L60.58 15.6334C60.6667 15.74 60.7533 15.8367 60.8366 15.9234C60.9533 16.0467 61.07 16.1567 61.1833 16.25C61.6533 16.6367 62.13 16.8134 62.5966 16.78ZM62.3267 13.51C62.4833 13.5934 62.61 13.67 62.6967 13.7434C62.8667 13.8834 62.9867 14.0467 63.0567 14.2267C63.1267 14.4067 63.1367 14.6 63.0833 14.81C63.03 15.0234 62.9267 15.2234 62.78 15.4034C62.5633 15.6667 62.32 15.81 62.0367 15.85C61.7533 15.8867 61.52 15.82 61.3133 15.6534C61.2533 15.6034 61.1833 15.5367 61.1067 15.4567C61.0433 15.3934 60.98 15.32 60.9067 15.2367L62.3267 13.51Z" fill="black"/>
<path d="M67.93 17.8333L67.72 17.5867L62.6167 19.1933C62.1967 19.33 61.8934 19.3867 61.71 19.3667C61.6767 19.3633 61.5734 19.3367 61.3434 19.1467L61.2567 19.0767L60.9534 19.3367L62.3267 20.94L62.64 20.67L62.5667 20.5733C62.36 20.2933 62.3334 20.1767 62.3334 20.14C62.33 20.05 62.36 20.0133 62.3834 19.9933C62.4334 19.95 62.55 19.8833 62.8234 19.7967L63.7034 19.52L65.07 21.1167L64.6967 21.8567C64.5434 22.17 64.44 22.2933 64.3834 22.34C64.3434 22.3767 64.2934 22.39 64.23 22.3767C64.1867 22.3667 64.0867 22.3267 63.9034 22.13L63.8167 22.04L63.5 22.31L65.1767 24.2667L65.4934 23.9967L65.4167 23.9C65.2934 23.7333 65.23 23.5733 65.23 23.4267C65.23 23.3167 65.28 23.0933 65.5067 22.6433L67.93 17.8333ZM66.2934 18.71L65.36 20.56L64.3067 19.33L66.2934 18.71Z" fill="black"/>
<path d="M18.8601 61.8801L19.0734 62.1068C19.1367 62.1768 19.1801 62.2568 19.2034 62.3534C19.2167 62.4101 19.2167 62.4534 19.2034 62.4868C19.1867 62.5201 19.1234 62.6101 18.9001 62.8201L16.4134 65.1334C16.2434 65.2901 16.1534 65.3234 16.1134 65.3301C16.0634 65.3368 16.0267 65.3301 16.01 65.3168C15.9934 65.2934 16 65.2368 16.0334 65.1634C16.1734 64.8434 16.1867 64.7201 16.1834 64.6501C16.1767 64.5401 16.1367 64.4434 16.06 64.3634C15.9634 64.2601 15.8434 64.2034 15.6934 64.1934C15.5734 64.1934 15.4534 64.2401 15.3401 64.3434C15.2034 64.4701 15.14 64.6434 15.1467 64.8568C15.1567 65.0634 15.25 65.2634 15.4267 65.4534C15.64 65.6834 15.9001 65.8168 16.1934 65.8501C16.2567 65.8568 16.3201 65.8601 16.3834 65.8601C16.5967 65.8601 16.8001 65.8201 16.9901 65.7368C17.2301 65.6334 17.4934 65.4468 17.7767 65.1834L19.5567 63.5268C19.8367 63.2668 19.9367 63.2434 19.9534 63.2401C20.0634 63.2334 20.1701 63.2834 20.2801 63.4034L20.4901 63.6301L20.78 63.3601L19.1534 61.6101L18.8601 61.8801Z" fill="black"/>
<path d="M32.5533 74.9767C32.5066 74.9034 32.4433 74.7234 32.4 74.3034L31.9633 69.7567L31.6733 69.6667L28.74 73.1234C28.4433 73.4767 28.2666 73.6068 28.1733 73.6534C28.1566 73.6601 28.0766 73.6901 27.82 73.6567L27.7133 73.6434L27.6 74.0034L29.3466 74.5434L29.46 74.1701L29.3466 74.1267C29.07 74.0201 29.0066 73.9501 28.9933 73.9301C28.95 73.8667 28.9633 73.8334 28.9666 73.8201C28.9833 73.7701 29.0333 73.6701 29.1866 73.4901L29.6866 72.9067L31.36 73.4234L31.4266 74.1068C31.4566 74.3968 31.44 74.5301 31.4233 74.5867C31.4133 74.6134 31.3966 74.6467 31.3366 74.6701C31.3133 74.6801 31.23 74.6967 31.0066 74.6401L30.8866 74.6101L30.77 74.9834L32.8933 75.6401L33.0066 75.2667L32.8933 75.2234C32.73 75.1634 32.6166 75.0801 32.5533 74.9767ZM31.3133 72.8501L30.06 72.4634L31.15 71.1834L31.3133 72.8501Z" fill="black"/>
<path d="M47.29 70.1L47.3833 70.4834L47.51 70.4534C47.6466 70.42 47.72 70.4234 47.7533 70.43C47.8033 70.44 47.84 70.4567 47.87 70.4834C47.8966 70.51 47.9166 70.5434 47.9266 70.5834C47.9366 70.63 47.94 70.7567 47.8366 71.0634L47.3166 72.59L46.0766 71.4167C45.82 71.1734 45.79 71.0867 45.7866 71.07C45.77 71.0134 45.7833 70.97 45.83 70.93C45.8966 70.87 45.97 70.83 46.0633 70.8067L46.2966 70.75L46.2 70.3634L43.8833 70.93L43.9766 71.3134L44.1033 71.2834C44.1933 71.26 44.24 71.2634 44.26 71.27C44.4966 71.3167 44.5833 71.36 44.6133 71.38C44.6566 71.41 44.7633 71.4934 45.0233 71.7334L46.8133 73.4067L47.0833 74.5134C47.1666 74.8534 47.1433 74.9534 47.1366 74.9734C47.0966 75.0767 47 75.1467 46.8366 75.1867L46.54 75.2567L46.6333 75.6434L48.94 75.0834L48.8433 74.6967L48.56 74.7667C48.4033 74.8034 48.2833 74.7934 48.2 74.74C48.1866 74.73 48.1133 74.6634 48.02 74.2867L47.7333 73.11L48.44 71.0267C48.5233 70.7734 48.6 70.5834 48.6666 70.4667C48.7333 70.3567 48.81 70.2634 48.9033 70.19C49.0266 70.0934 49.0833 70.07 49.1033 70.0667L49.3233 70.0134L49.23 69.6267L47.29 70.1Z" fill="black"/>
<path d="M64.73 64.6833L64.6366 64.7633C64.5066 64.8766 64.3766 64.94 64.2566 64.9466C64.1666 64.95 63.98 64.9233 63.5933 64.76L59.3833 62.98L59.1666 63.1933L60.8133 67.42C60.98 67.8466 61.0133 68.0633 61.0066 68.1666C61.0066 68.19 60.9933 68.27 60.8433 68.48L60.78 68.57L61.0433 68.8366L62.3466 67.56L62.0766 67.2833L61.9833 67.3633C61.7566 67.5533 61.6666 67.5766 61.6433 67.58C61.5766 67.5866 61.55 67.5666 61.5333 67.55C61.4966 67.5133 61.4333 67.42 61.3466 67.1966L61.07 66.48L62.32 65.2566L62.9566 65.5233C63.2233 65.6366 63.3333 65.71 63.3766 65.7566C63.3933 65.7733 63.4166 65.8066 63.4066 65.8666C63.4033 65.8966 63.38 65.9766 63.2233 66.1466L63.14 66.2366L63.4133 66.5166L65 64.9633L64.73 64.6833ZM61.7966 65.0233L60.86 65.9433L60.2533 64.3733L61.7966 65.0233Z" fill="black"/>
<path d="M24.38 45.1334C24.15 45.1334 23.9566 45.11 23.77 45.1367C23.09 45.24 22.6666 45.7767 22.6166 46.55C22.55 47.6334 22.8933 48.6134 23.3833 49.5467C24.48 51.6234 26.08 53.1634 28.28 54.0367C29.64 54.5767 31.0566 54.6634 32.4966 54.5034C33.66 54.3734 34.8133 54.18 35.9033 53.7267C38.3766 52.6934 39.7533 50.8234 39.8733 48.1667C39.9633 46.2367 39.3766 44.4634 37.9 43.1034C35.9633 41.32 32.4966 41.5567 30.8866 43.5567C30.47 44.0767 30.33 44.4767 30.2466 45.4134C28.77 44.5934 27.81 42.8167 29.5033 41.2534C29.6366 41.13 29.78 41.0167 29.9266 40.91C30.99 40.1467 32.1933 39.7167 33.4566 39.4334C34.4333 39.2167 35.39 38.9534 36.23 38.3767C36.9966 37.85 37.6166 37.1967 37.9666 36.3167C38.56 34.8167 38.0033 33.4434 36.52 32.8134C36.2466 32.7 36.1833 32.5667 36.1866 32.29C36.2133 31.1667 36.2166 30.0434 36.2133 28.92C36.21 28.7067 36.27 28.65 36.4833 28.6434C38.73 28.5867 40.5833 29.4067 42 31.1567C43.4733 32.98 43.53 35.4934 42.19 37.6367C41.4666 38.7934 40.5133 39.73 39.4233 40.5367C39.22 40.6867 39.2033 40.7467 39.4233 40.9C40.74 41.8167 41.9233 42.8767 42.8233 44.22C44.9066 47.33 44.5733 50.86 41.94 53.5334C40.1266 55.3767 37.9066 56.4367 35.37 56.8167C31.0966 57.45 27.4533 56.1034 24.3166 53.22C23.3333 52.3134 22.39 51.3734 21.6666 50.2367C20.7866 48.85 20.21 47.3667 20.2733 45.6934C20.3033 44.9134 20.4833 44.1734 20.9533 43.53C21.63 42.6067 22.6166 42.5367 23.4033 43.36C23.8766 43.8567 24.16 44.4534 24.38 45.1334Z" fill="#8C8101"/>
<path d="M30.2466 45.4133C29.9799 45.02 28.4433 42.5 30.1266 41.2366C32.0066 39.8233 35.3033 39.7833 36.4399 38.8733C37.3666 38.13 39.0166 36.99 38.5866 34.5166C38.1599 32.04 36.8133 32.5966 36.7633 32.1666C36.7133 31.7366 36.9799 28.6466 36.9799 28.6466L36.4833 28.6433C36.2699 28.65 36.2099 28.7066 36.2133 28.92C36.2166 30.0433 36.2133 31.1666 36.1866 32.29C36.1833 32.5666 36.2466 32.7 36.5199 32.8133C38.0033 33.4433 38.5599 34.8166 37.9666 36.3166C37.6166 37.1966 36.9966 37.85 36.2299 38.3766C35.3899 38.9533 34.4333 39.2166 33.4566 39.4333C32.1933 39.7166 30.9899 40.1466 29.9266 40.91C29.7799 41.0166 29.6366 41.13 29.5033 41.2533C28.6399 42.05 28.4699 42.9 28.6999 43.6533C28.9666 44.69 30.2833 45.47 30.2466 45.4133Z" fill="url(#paint0_linear_403_621)"/>
<path d="M40.76 47.9534C40.5834 45.3001 39.0167 41.8434 36.5434 41.2368C34.0667 40.6268 31.4934 42.0434 31.4934 42.0434C31.4934 42.0434 30.6567 42.5234 30.3034 43.0534C29.95 43.5834 29.99 45.2701 30.2467 45.4134C30.33 44.4768 30.47 44.0768 30.8867 43.5568C32.4967 41.5568 35.9634 41.3201 37.9 43.1034C39.3767 44.4634 39.9634 46.2368 39.8734 48.1668C39.7534 50.8234 38.3767 52.6934 35.9034 53.7268C34.8134 54.1801 33.66 54.3734 32.4967 54.5034C31.0567 54.6634 29.64 54.5768 28.28 54.0368C26.08 53.1634 24.48 51.6234 23.3834 49.5468C22.8934 48.6134 22.55 47.6334 22.6167 46.5501C22.6667 45.7768 23.09 45.2401 23.77 45.1368C23.9567 45.1101 24.15 45.1334 24.38 45.1334C24.16 44.4534 23.8767 43.8568 23.4034 43.3601C22.6167 42.5368 21.63 42.6068 20.9534 43.5301C20.9534 43.5301 22.1367 42.7568 22.84 43.5701C23.54 44.3868 23.4634 44.6134 23.4634 44.6134C23.4634 44.6134 22.1367 44.9168 22.1 46.5268C22.0634 48.1368 22.7267 49.5201 22.97 49.9368C23.2167 50.3534 24.2234 52.3034 26.06 53.3834C27.8967 54.4634 29.57 55.2034 31.6434 55.0768C33.7134 54.9501 36.5934 54.5468 37.83 53.4334C39.0667 52.3234 40.9367 50.6068 40.76 47.9534Z" fill="url(#paint1_linear_403_621)"/>
<path d="M28.4433 25.4866C28.92 25.6499 29.38 25.8666 29.8667 26.0133C31.64 26.5399 33.39 26.3799 35.1333 25.8666C36.7 25.4066 38.1867 24.7333 39.6967 24.1299C41.38 23.4566 43.0933 22.8966 44.89 22.5799C46.39 22.3166 47.84 22.4733 49.29 22.8899C50.98 23.3766 52.5867 24.0233 53.98 25.1233C55.7034 26.4799 56.7 28.2666 57.0634 30.4133C57.3367 32.0399 57.3 33.6666 56.95 35.2733C56.7534 36.1866 56.22 36.9499 55.6867 37.6999C54.4733 39.3899 52.9867 40.7599 51.08 41.6366C50.4634 41.9199 49.8233 42.1433 49.12 42.2933C49.12 41.5533 49.12 40.8266 49.12 40.0999C49.12 40.0066 49.1834 39.9733 49.2567 39.9366C51.2667 38.9533 52.46 37.2566 53.2767 35.2466C53.5867 34.4866 53.8767 33.7199 53.9234 32.8833C54.0134 31.2999 53.59 29.8633 52.6534 28.5933C51.3634 26.8366 49.56 25.8799 47.47 25.4299C45.8367 25.0733 44.1867 25.0499 42.57 25.4966C41.5967 25.7633 40.6733 26.2133 39.7133 26.5466C37.8433 27.1966 35.94 27.7033 33.9433 27.7499C31.89 27.7999 30.0567 27.2566 28.6 25.7266C28.5333 25.6599 28.4433 25.6099 28.4333 25.5033L28.4433 25.4866Z" fill="#8C8101"/>
<path d="M43.9667 52.8701C44.5467 52.9934 45.12 53.1401 45.7067 53.2301C47.4367 53.4968 49.1133 53.3968 50.6667 52.4901C51.9333 51.7468 52.79 50.6268 53.4433 49.3401C54.6167 47.0401 55.0767 44.5868 54.9367 42.0201C54.89 41.2068 54.8433 40.5568 54.62 39.7668C54.59 39.6568 54.5467 39.5568 54.67 39.4368C55.66 38.4534 56.42 37.3134 56.9933 36.0434C57.0067 36.0101 57.0333 35.9801 57.0633 35.9368C57.7133 37.0268 58.0767 38.0301 58.3333 39.2568C58.6167 40.6001 58.6633 41.9534 58.5333 43.3201C58.4367 44.2834 58.3767 45.2501 58.23 46.2068C57.92 48.2468 57.1 50.0601 55.8433 51.6768C54.5 53.4034 52.6667 54.3301 50.5633 54.7301C48.7667 55.0734 47.03 54.8501 45.4067 53.9634C44.8733 53.6768 44.3867 53.3234 43.9667 52.8701Z" fill="#8C8101"/>
<path d="M25.0467 31.9534C25.4101 32.1767 25.7701 32.39 26.1567 32.56C26.6867 32.7934 27.2434 32.9467 27.8234 32.9534C28.0467 32.9567 28.0867 33.04 28.0834 33.2434C28.0767 35.3734 28.0801 37.5067 28.0801 39.6367C28.0801 42.96 28.0834 46.28 28.0734 49.6034C28.0734 49.8834 28.1534 50.09 28.3301 50.3C28.7367 50.7734 29.1067 51.2734 29.4067 51.8234C29.5267 52.0434 29.6267 52.27 29.6734 52.52C29.7401 52.8934 29.5667 53.1134 29.1867 53.13C28.7134 53.15 28.2767 52.9967 27.8567 52.81C26.6601 52.28 25.5701 51.5934 24.7467 50.5467C24.5501 50.2967 24.3934 50.0234 24.3567 49.6967C24.3201 49.32 24.4801 49.0334 24.7901 48.85C24.9834 48.7434 25.0167 48.61 25.0167 48.41C25.0134 43.0334 25.0134 37.6567 25.0134 32.2834C25.0134 32.18 24.9867 32.0734 25.0467 31.9534Z" fill="#8C8101"/>
<path d="M25.8067 32.37C25.4234 32.2034 25.4101 32.1767 25.0467 31.9534C24.9867 32.0734 25.0134 32.18 25.0134 32.2834C25.0134 37.6567 25.0134 43.0334 25.0167 48.41C25.0167 48.61 24.9834 48.7434 24.7901 48.85C24.4801 49.0334 24.3201 49.32 24.3567 49.6967C24.3934 50.0234 24.5501 50.2967 24.7467 50.5467L26.1567 51.87C26.1567 51.87 25.2501 50.5534 25.5534 49.5934C25.8567 48.6367 25.8067 32.37 25.8067 32.37Z" fill="url(#paint2_linear_403_621)"/>
<path d="M45.6534 32.8633C46.8501 33.2099 47.8734 33.8066 48.7367 34.6733C48.8267 34.7599 48.8167 34.8599 48.8167 34.9633C48.8101 36.6633 48.8034 38.3633 48.8034 40.0599C48.8034 43.2766 48.8134 46.4933 48.8134 49.7066C48.8134 49.8499 48.8567 49.9399 48.9767 50.0133C49.2067 50.1533 49.4167 50.3199 49.6067 50.5133C50.2201 51.1433 50.1367 51.7099 49.3701 52.1333C48.9867 52.3433 48.5701 52.4599 48.1434 52.5299C47.3001 52.6699 46.4634 52.6233 45.6401 52.3766C44.6567 52.08 44.4501 51.4433 45.0767 50.6199C45.1501 50.5199 45.2201 50.4066 45.3167 50.3366C45.6701 50.0766 45.7334 49.7366 45.7301 49.3133C45.7034 47.0966 45.7101 44.88 45.7001 42.66C45.6867 39.5066 45.6701 36.3499 45.6534 33.1966C45.6501 33.0933 45.6534 32.9866 45.6534 32.8633Z" fill="#8C8101"/>
<path d="M45.6534 32.8633C45.6534 32.9866 45.6501 33.0933 45.6534 33.1966C45.6701 36.3499 45.6867 39.5066 45.7001 42.6599C45.7101 44.8799 45.7034 47.0966 45.7301 49.3133C45.7334 49.7366 45.6701 50.0766 45.3167 50.3366C45.2201 50.4066 45.1501 50.5199 45.0767 50.6199C44.4501 51.4433 44.6567 52.08 45.6401 52.3766C46.0901 52.5099 46.5434 52.5866 46.9967 52.6033C46.9967 52.6033 46.6067 51.9266 45.9501 51.8499C45.2934 51.7733 45.5901 50.8999 46.1201 50.4299C47.1767 49.4933 46.4934 33.6066 46.4934 33.6066L46.4567 33.2066C46.4567 33.2066 46.4534 33.0666 45.6534 32.8633Z" fill="url(#paint3_linear_403_621)"/>
<path d="M35.8267 46.2433C35.8267 47.4033 35.83 48.5633 35.82 49.7266C35.8167 49.9466 35.8867 50.1033 36.0433 50.2533C36.34 50.5399 36.6067 50.8566 36.8 51.2233C37.1567 51.9066 36.9833 52.4099 36.28 52.7133C35.79 52.9266 35.2667 53.0066 34.74 53.0399C33.6967 53.0999 32.65 53.1466 31.6267 52.8433C30.4867 52.5033 30.2533 51.7133 31.04 50.8199C31.2467 50.5866 31.4733 50.3799 31.73 50.2099C31.9033 50.0999 31.9633 49.9666 31.9633 49.7633C31.9567 47.7199 31.9667 45.6733 31.96 43.6299C31.9567 43.4199 32.03 43.3099 32.2067 43.2066C33.2633 42.5899 34.4067 42.3466 35.6233 42.3799C35.8233 42.3866 35.8567 42.4666 35.8567 42.6433C35.85 43.8433 35.8533 45.0433 35.8533 46.2433C35.8433 46.2433 35.8333 46.2433 35.8267 46.2433Z" fill="#8C8101"/>
<path d="M32.2067 43.2067C32.03 43.3101 31.9567 43.4201 31.96 43.6301C31.9667 45.6734 31.9567 47.7201 31.9633 49.7634C31.9633 49.9667 31.9033 50.1001 31.73 50.2101C31.4733 50.3801 31.2467 50.5867 31.04 50.8201C30.2533 51.7134 30.4867 52.5034 31.6267 52.8434L32.6433 53.0834C32.6433 53.0834 33.1067 52.6634 32.4633 52.3601C31.82 52.0567 30.8633 51.8434 31.8533 51.0334C32.9133 50.1667 32.56 50.1634 32.5967 48.6101C32.6333 47.0567 32.5033 43.0601 32.5033 43.0601L32.2067 43.2067Z" fill="url(#paint4_linear_403_621)"/>
<path d="M31.8533 39.3699C31.8533 39.1032 31.8533 38.8732 31.8533 38.6432C31.8633 35.7732 31.8699 32.9032 31.8766 30.0332C31.8799 29.5266 31.8799 29.5232 32.3566 29.3499C33.3799 28.9832 34.4366 28.7766 35.5199 28.7066C35.7599 28.6899 35.8066 28.7466 35.8033 28.9732C35.7799 31.2066 35.7633 33.4432 35.7466 35.6799C35.7433 36.2366 35.7233 36.7932 35.7433 37.3499C35.7533 37.6266 35.6399 37.7966 35.4433 37.9566C35.0533 38.2766 34.6233 38.5099 34.1433 38.6699C33.3933 38.9199 32.6066 39.0432 31.8533 39.3699Z" fill="#8C8101"/>
<path d="M31.8533 39.37C31.8533 39.1033 31.8533 38.8733 31.8533 38.6433C31.8599 35.7733 31.8666 32.9033 31.8766 30.0333C31.8766 29.5266 31.8799 29.5233 32.3133 29.35L32.6433 29.23L32.5166 39.11L31.8533 39.37Z" fill="url(#paint5_linear_403_621)"/>
<path d="M41.6899 27.8201C42.2499 28.3134 42.7966 28.8067 43.3699 29.2701C44.4399 30.1301 45.6333 30.5934 47.0233 30.5834C48.1833 30.5734 49.3466 30.6267 50.4833 30.8967C51.5899 31.1601 52.5599 31.7201 53.5066 32.3267C53.6933 32.4467 53.6299 32.6134 53.6199 32.7634C53.5433 33.6801 53.2699 34.5434 52.8966 35.3767C52.7933 35.6101 52.6833 35.8367 52.5666 36.0867C51.4433 34.9001 50.1199 34.0701 48.6833 33.4134C47.7599 32.9901 46.7799 32.7034 45.8333 32.3434C44.9499 32.0067 44.0999 31.6134 43.3733 30.9967C42.3933 30.1667 41.8733 29.0834 41.6899 27.8201Z" fill="#8C8101"/>
<path d="M23.3199 27.3701C23.7566 27.9368 24.1633 28.4168 24.6466 28.8301C26.0833 30.0668 27.7433 30.4401 29.5833 30.1268C30.1433 30.0334 30.6866 29.8834 31.2166 29.6868C31.4133 29.6134 31.4866 29.6201 31.4833 29.8568C31.4766 30.7101 31.4866 31.5635 31.4933 32.4168C31.4933 32.5435 31.4933 32.6335 31.3233 32.6468C29.6899 32.7635 28.0666 32.7668 26.5033 32.1634C24.7133 31.4768 23.7633 30.1235 23.4399 28.2768C23.3899 28.0068 23.3666 27.7268 23.3199 27.3701Z" fill="#8C8101"/>
<path d="M23.3199 27.3701C25.2533 33.4168 31.4866 31.5635 31.4933 32.4168C31.4933 32.5435 31.4933 32.6335 31.3233 32.6468C29.6899 32.7635 28.0666 32.7668 26.5033 32.1634C24.7133 31.4768 23.7633 30.1235 23.4399 28.2768C23.3899 28.0068 23.3666 27.7268 23.3199 27.3701Z" fill="url(#paint6_linear_403_621)"/>
<path d="M41.1934 39.97C42.0634 40.21 42.9267 40.4266 43.81 40.5533C44.2667 40.6166 44.7234 40.6633 45.1834 40.6633C45.3734 40.6633 45.4267 40.7333 45.42 40.9166C45.4067 41.3366 45.4134 41.76 45.42 42.1833C45.42 42.3133 45.3967 42.3833 45.2434 42.3533C43.63 42.0066 42.25 41.2566 41.1934 39.97Z" fill="#8C8101"/>
<path d="M41.1934 39.97C42.0634 40.21 42.9267 40.4266 43.81 40.5533C44.2667 40.6166 44.7234 40.6633 45.1834 40.6633C45.3734 40.6633 45.4267 40.7333 45.42 40.9166C45.4167 41.0233 45.4134 41.13 45.4134 41.2333C45.4134 41.2333 42.7267 41.3166 41.1934 39.97Z" fill="url(#paint7_linear_403_621)"/>
<path d="M28.4333 25.5033C28.41 25.4899 28.3866 25.4799 28.3633 25.4699C28.3733 25.4599 28.3833 25.4499 28.3899 25.4399C28.4066 25.4566 28.4233 25.4699 28.4433 25.4866L28.4333 25.5033Z" fill="#8C8101"/>
<path d="M28.4434 25.4868C28.4434 25.4868 29.07 25.9601 29.5334 26.2568C31.6767 27.6368 35.8034 27.2034 40.1934 25.4401C42.93 24.3434 45.3467 24.0568 48.3267 24.5634C51.3067 25.0701 53.5234 27.7034 54.1867 29.0834C54.9234 30.6134 55.9667 34.8201 52.5834 38.3434C51 39.9901 49.12 40.7368 49.12 40.7368C49.12 40.4768 49.12 40.3601 49.12 40.1001C49.12 40.0068 49.1834 39.9734 49.2567 39.9368C51.2667 38.9534 52.46 37.2568 53.2767 35.2468C53.5867 34.4868 53.8767 33.7201 53.9234 32.8834C54.0134 31.3001 53.59 29.8634 52.6534 28.5934C51.3634 26.8368 49.56 25.8801 47.47 25.4301C45.8367 25.0734 44.1867 25.0501 42.57 25.4968C41.5967 25.7634 40.6734 26.2134 39.7134 26.5468C37.8434 27.1968 35.94 27.7034 33.9434 27.7501C31.89 27.8001 30.0567 27.2568 28.6 25.7268C28.6 25.7268 28.4534 25.5601 28.4434 25.4868Z" fill="url(#paint8_linear_403_621)"/>
<path d="M43.9667 52.8701C44.5467 52.9934 45.12 53.1401 45.7067 53.2301C47.4367 53.4968 49.1133 53.3968 50.6667 52.4901C51.9333 51.7468 52.79 50.6268 53.4433 49.3401C54.6167 47.0401 55.0767 44.5868 54.9367 42.0201C54.89 41.2068 54.8433 40.5568 54.62 39.7668C54.59 39.6568 54.5467 39.5568 54.67 39.4368C55.6133 38.5068 56.8433 36.2001 57.0633 35.9368C57.0633 35.9368 57.4467 36.2301 57.0633 37.1168C56.6767 38.0068 55.38 39.4168 55.4367 39.7701C55.6633 41.2001 56.0167 43.2034 55.7633 45.2001C55.4967 47.3201 54.0733 50.1768 53.34 51.0868C52.6067 51.9934 49.6267 54.9768 45.7633 53.6634L43.9667 52.8701Z" fill="url(#paint9_linear_403_621)"/>
<path d="M41.6899 27.8201C41.6933 27.8534 41.8333 29.4401 42.9833 30.6267C43.9666 31.6167 44.9499 32.0067 45.8333 32.3434C46.7799 32.7034 47.7599 32.9901 48.6833 33.4134C50.1199 34.0701 51.4433 34.9001 52.5666 36.0867C52.6833 35.8367 52.7933 35.6101 52.8966 35.3767C52.8966 35.3767 50.7633 33.2534 48.0866 32.3434C45.4066 31.4334 44.4733 31.5234 41.6899 27.8201Z" fill="url(#paint10_linear_403_621)"/>
</g>
<defs>
<linearGradient id="paint0_linear_403_621" x1="33.6318" y1="28.6433" x2="33.6318" y2="45.4162" gradientUnits="userSpaceOnUse">
<stop stop-color="white"/>
<stop offset="1" stop-color="white" stop-opacity="0"/>
</linearGradient>
<linearGradient id="paint1_linear_403_621" x1="30.8625" y1="41.0842" x2="30.8625" y2="55.0908" gradientUnits="userSpaceOnUse">
<stop stop-color="white"/>
<stop offset="1" stop-color="white" stop-opacity="0"/>
</linearGradient>
<linearGradient id="paint2_linear_403_621" x1="25.2541" y1="31.9534" x2="25.2541" y2="51.87" gradientUnits="userSpaceOnUse">
<stop stop-color="white"/>
<stop offset="1" stop-color="white" stop-opacity="0"/>
</linearGradient>
<linearGradient id="paint3_linear_403_621" x1="45.8585" y1="32.8633" x2="45.8585" y2="52.6033" gradientUnits="userSpaceOnUse">
<stop stop-color="white"/>
<stop offset="1" stop-color="white" stop-opacity="0"/>
</linearGradient>
<linearGradient id="paint4_linear_403_621" x1="31.6915" y1="43.0601" x2="31.6915" y2="53.0834" gradientUnits="userSpaceOnUse">
<stop stop-color="white"/>
<stop offset="1" stop-color="white" stop-opacity="0"/>
</linearGradient>
<linearGradient id="paint5_linear_403_621" x1="32.2483" y1="29.23" x2="32.2483" y2="39.37" gradientUnits="userSpaceOnUse">
<stop stop-color="white"/>
<stop offset="1" stop-color="white" stop-opacity="0"/>
</linearGradient>
<linearGradient id="paint6_linear_403_621" x1="27.4066" y1="27.3701" x2="27.4066" y2="32.7079" gradientUnits="userSpaceOnUse">
<stop stop-color="white"/>
<stop offset="1" stop-color="white" stop-opacity="0"/>
</linearGradient>
<linearGradient id="paint7_linear_403_621" x1="41.1934" y1="40.6033" x2="45.42" y2="40.6033" gradientUnits="userSpaceOnUse">
<stop stop-color="#847424"/>
<stop offset="0.258824" stop-color="#E5D71A"/>
<stop offset="0.65098" stop-color="#E5D71A"/>
<stop offset="0.85098" stop-color="#E5D71A"/>
<stop offset="0.980392" stop-color="#847424"/>
<stop offset="1" stop-color="#847424"/>
</linearGradient>
<linearGradient id="paint8_linear_403_621" x1="41.6904" y1="24.3213" x2="41.6904" y2="40.7368" gradientUnits="userSpaceOnUse">
<stop stop-color="white"/>
<stop offset="1" stop-color="white" stop-opacity="0"/>
</linearGradient>
<linearGradient id="paint9_linear_403_621" x1="50.6002" y1="35.9368" x2="50.6002" y2="53.9923" gradientUnits="userSpaceOnUse">
<stop stop-color="white"/>
<stop offset="1" stop-color="white" stop-opacity="0"/>
</linearGradient>
<linearGradient id="paint10_linear_403_621" x1="47.2933" y1="27.8201" x2="47.2933" y2="36.0867" gradientUnits="userSpaceOnUse">
<stop stop-color="white"/>
<stop offset="1" stop-color="white" stop-opacity="0"/>
</linearGradient>
<clipPath id="clip0_403_621">
<rect width="80" height="80" fill="white"/>
</clipPath>
</defs>
</svg>
